<svg width="558" height="592" viewBox="0 0 558 592" fill="none" xmlns="http://www.w3.org/2000/svg">
<g clip-path="url(#clip0_49_2430)">
<path d="M0 318.371C0 298.412 0 278.457 0 258.498C0.225867 254.875 1.79753 251.69 3.61387 248.711C21.8997 218.734 40.2608 188.8 58.6031 158.856C87.8011 111.185 116.999 63.509 146.197 15.8378C149.501 10.4486 152.818 5.06876 155.933 0.00845337H295.27C295.27 69.4621 295.27 138.488 295.693 207.603C300.667 204.639 305.034 201.476 309.673 198.733C331.022 186.117 354.179 179.483 378.812 177.227C402.161 175.094 425.082 177.119 447.542 183.617C473.968 191.262 497.199 204.502 516.045 224.753C537.197 247.475 549.389 274.355 552.556 305.243C554.88 327.951 552.556 350.105 544.062 371.417C536.157 391.273 523.734 408.207 509.453 423.886C496.677 437.916 482.311 450.31 468.505 463.274C455.715 475.283 442.827 487.189 430.004 499.161C428.917 500.176 427.962 501.332 426.357 503.056H557.977C557.977 504.771 557.977 506.152 557.977 507.534C557.967 528.888 557.986 550.243 557.93 571.603C557.911 578.406 558.264 585.219 557.581 592.008H230.874C230.413 590.693 231.58 590.209 232.229 589.537C250.6 570.569 269.003 551.634 287.374 532.666C294.832 524.965 302.587 517.551 310.054 509.869C315.503 504.259 320.642 498.334 326.11 492.715C348.306 469.908 370.107 446.739 390.143 421.988C403.469 405.524 416.174 388.605 426.696 370.172C433.928 357.505 440.135 344.462 442.483 329.826C444.116 319.64 444.502 309.561 441.194 299.713C433.698 277.395 413.459 265.367 390.11 268.849C372.563 271.466 361.326 281.53 355.218 297.749C352.315 305.46 351.656 313.518 352.193 321.702C352.461 325.762 353.294 329.793 352.993 334.365H295.19V404.298H196.782V321.622H0.691718C0.418795 320.349 0.21175 319.358 0 318.371ZM197.206 240.77V82.2702C197.046 82.1997 196.886 82.1246 196.726 82.0541C186.397 99.6783 176.068 117.302 165.852 134.734C166.243 135.937 167.405 136.214 167.509 137.262C166.516 137.36 166.191 135.918 164.874 136.374C144.658 170.903 124.345 205.592 103.744 240.77H197.206Z" fill="white" fill-opacity="0.01"/>
</g>
<defs>
<clipPath id="clip0_49_2430">
<rect width="558" height="592" fill="white"/>
</clipPath>
</defs>
</svg>
