<svg width="167" height="44" viewBox="0 0 167 44" fill="none" xmlns="http://www.w3.org/2000/svg">
<path d="M23.2988 37.366C23.6161 37.366 23.9148 37.4267 24.1948 37.548C24.4748 37.6693 24.7175 37.8373 24.9228 38.052C25.1281 38.2573 25.2868 38.5 25.3988 38.78C25.5201 39.06 25.5808 39.3587 25.5808 39.676C25.5808 39.9933 25.5201 40.2967 25.3988 40.586C25.2868 40.866 25.1281 41.1133 24.9228 41.328C24.7175 41.5333 24.4748 41.6967 24.1948 41.818C23.9148 41.9393 23.6161 42 23.2988 42C22.9815 42 22.6781 41.9393 22.3888 41.818C22.1088 41.6967 21.8615 41.5333 21.6468 41.328C21.4415 41.1133 21.2781 40.866 21.1568 40.586C21.0355 40.2967 20.9748 39.9933 20.9748 39.676C20.9748 39.3587 21.0355 39.06 21.1568 38.78C21.2875 38.5 21.4555 38.2573 21.6608 38.052C21.8755 37.8373 22.1228 37.6693 22.4028 37.548C22.6828 37.4267 22.9815 37.366 23.2988 37.366ZM23.2848 38.164C23.0701 38.164 22.8695 38.206 22.6828 38.29C22.5055 38.374 22.3468 38.486 22.2068 38.626C22.0761 38.766 21.9688 38.9293 21.8848 39.116C21.8101 39.3027 21.7728 39.4987 21.7728 39.704C21.7728 39.9 21.8148 40.0913 21.8988 40.278C21.9828 40.4553 22.0948 40.614 22.2348 40.754C22.3748 40.894 22.5335 41.006 22.7108 41.09C22.8975 41.1647 23.0888 41.202 23.2848 41.202C23.4901 41.202 23.6815 41.16 23.8588 41.076C24.0455 40.992 24.2041 40.88 24.3348 40.74C24.4748 40.6 24.5821 40.4413 24.6568 40.264C24.7408 40.0773 24.7828 39.8813 24.7828 39.676C24.7828 39.4707 24.7408 39.2793 24.6568 39.102C24.5821 38.9153 24.4748 38.752 24.3348 38.612C24.2041 38.472 24.0455 38.3647 23.8588 38.29C23.6815 38.206 23.4901 38.164 23.2848 38.164ZM19.6588 34.552C19.6588 34.8693 19.5981 35.168 19.4768 35.448C19.3555 35.728 19.1875 35.9753 18.9728 36.19C18.7675 36.3953 18.5201 36.5587 18.2308 36.68C17.9508 36.8013 17.6521 36.862 17.3348 36.862C17.0175 36.862 16.7188 36.8013 16.4388 36.68C16.1588 36.5587 15.9115 36.3953 15.6968 36.19C15.4915 35.9753 15.3281 35.728 15.2068 35.448C15.0855 35.168 15.0248 34.8693 15.0248 34.552C15.0248 34.2347 15.0855 33.936 15.2068 33.656C15.3281 33.376 15.4915 33.1333 15.6968 32.928C15.9115 32.7133 16.1588 32.5453 16.4388 32.424C16.7188 32.2933 17.0175 32.228 17.3348 32.228C17.6521 32.228 17.9508 32.2887 18.2308 32.41C18.5201 32.5313 18.7675 32.6993 18.9728 32.914C19.1875 33.1193 19.3555 33.3667 19.4768 33.656C19.5981 33.936 19.6588 34.2347 19.6588 34.552ZM17.3348 36.064C17.5401 36.064 17.7315 36.0267 17.9088 35.952C18.0955 35.868 18.2588 35.756 18.3988 35.616C18.5388 35.476 18.6508 35.3173 18.7348 35.14C18.8188 34.9533 18.8608 34.7573 18.8608 34.552C18.8608 34.3467 18.8188 34.1553 18.7348 33.978C18.6601 33.7913 18.5528 33.628 18.4128 33.488C18.2728 33.348 18.1095 33.236 17.9228 33.152C17.7361 33.068 17.5401 33.026 17.3348 33.026C17.1295 33.026 16.9335 33.068 16.7468 33.152C16.5695 33.2267 16.4108 33.334 16.2708 33.474C16.1308 33.614 16.0188 33.7773 15.9348 33.964C15.8601 34.1507 15.8228 34.3467 15.8228 34.552C15.8228 34.7573 15.8601 34.9533 15.9348 35.14C16.0188 35.3173 16.1308 35.476 16.2708 35.616C16.4108 35.756 16.5695 35.868 16.7468 35.952C16.9335 36.0267 17.1295 36.064 17.3348 36.064ZM17.8808 42.196H17.1528L22.7108 32.13H23.4388L17.8808 42.196ZM29.8647 35.448V34.748H30.9427V33.6C30.9427 33.0213 31.0594 32.564 31.2927 32.228C31.526 31.892 31.9227 31.724 32.4827 31.724C32.6134 31.724 32.7347 31.7287 32.8467 31.738C32.9587 31.7473 33.0707 31.7613 33.1827 31.78V32.55C32.996 32.5033 32.828 32.48 32.6787 32.48C32.464 32.48 32.296 32.522 32.1747 32.606C32.0534 32.6807 31.9647 32.7833 31.9087 32.914C31.8527 33.0447 31.8154 33.194 31.7967 33.362C31.7874 33.5207 31.7827 33.684 31.7827 33.852V34.748H33.1827V35.448H31.7827V42H30.9427V35.448H29.8647ZM36.9532 42.196C36.4865 42.1867 36.0478 42.1027 35.6372 41.944C35.2358 41.7853 34.8812 41.5473 34.5732 41.23C34.2745 40.9127 34.0365 40.516 33.8592 40.04C33.6818 39.564 33.5932 39.0087 33.5932 38.374C33.5932 37.842 33.6632 37.3473 33.8032 36.89C33.9432 36.4233 34.1532 36.0173 34.4332 35.672C34.7132 35.3267 35.0632 35.056 35.4832 34.86C35.9032 34.6547 36.3932 34.552 36.9532 34.552C37.5225 34.552 38.0172 34.6547 38.4372 34.86C38.8572 35.056 39.2072 35.3267 39.4872 35.672C39.7672 36.008 39.9725 36.4093 40.1032 36.876C40.2432 37.3427 40.3132 37.842 40.3132 38.374C40.3132 38.9527 40.2338 39.4753 40.0752 39.942C39.9165 40.4087 39.6878 40.81 39.3892 41.146C39.0998 41.482 38.7452 41.7433 38.3252 41.93C37.9145 42.1073 37.4572 42.196 36.9532 42.196ZM39.4172 38.374C39.4172 37.9447 39.3705 37.5433 39.2772 37.17C39.1838 36.7967 39.0392 36.4747 38.8432 36.204C38.6472 35.924 38.3952 35.7047 38.0872 35.546C37.7792 35.3873 37.4012 35.308 36.9532 35.308C36.5145 35.308 36.1365 35.3967 35.8192 35.574C35.5112 35.742 35.2592 35.9707 35.0632 36.26C34.8672 36.54 34.7225 36.8667 34.6292 37.24C34.5358 37.604 34.4892 37.982 34.4892 38.374C34.4892 38.822 34.5405 39.2373 34.6432 39.62C34.7552 39.9933 34.9138 40.3153 35.1192 40.586C35.3245 40.8567 35.5812 41.0667 35.8892 41.216C36.1972 41.3653 36.5518 41.44 36.9532 41.44C37.3918 41.44 37.7652 41.356 38.0732 41.188C38.3905 41.0107 38.6472 40.7773 38.8432 40.488C39.0392 40.1987 39.1838 39.872 39.2772 39.508C39.3705 39.144 39.4172 38.766 39.4172 38.374ZM41.5545 42V31.92H42.3945V42H41.5545ZM44.238 42V31.92H45.078V42H44.238ZM49.6795 42.196C49.2128 42.1867 48.7742 42.1027 48.3635 41.944C47.9622 41.7853 47.6075 41.5473 47.2995 41.23C47.0008 40.9127 46.7628 40.516 46.5855 40.04C46.4082 39.564 46.3195 39.0087 46.3195 38.374C46.3195 37.842 46.3895 37.3473 46.5295 36.89C46.6695 36.4233 46.8795 36.0173 47.1595 35.672C47.4395 35.3267 47.7895 35.056 48.2095 34.86C48.6295 34.6547 49.1195 34.552 49.6795 34.552C50.2488 34.552 50.7435 34.6547 51.1635 34.86C51.5835 35.056 51.9335 35.3267 52.2135 35.672C52.4935 36.008 52.6988 36.4093 52.8295 36.876C52.9695 37.3427 53.0395 37.842 53.0395 38.374C53.0395 38.9527 52.9602 39.4753 52.8015 39.942C52.6428 40.4087 52.4142 40.81 52.1155 41.146C51.8262 41.482 51.4715 41.7433 51.0515 41.93C50.6408 42.1073 50.1835 42.196 49.6795 42.196ZM52.1435 38.374C52.1435 37.9447 52.0968 37.5433 52.0035 37.17C51.9102 36.7967 51.7655 36.4747 51.5695 36.204C51.3735 35.924 51.1215 35.7047 50.8135 35.546C50.5055 35.3873 50.1275 35.308 49.6795 35.308C49.2408 35.308 48.8628 35.3967 48.5455 35.574C48.2375 35.742 47.9855 35.9707 47.7895 36.26C47.5935 36.54 47.4488 36.8667 47.3555 37.24C47.2622 37.604 47.2155 37.982 47.2155 38.374C47.2155 38.822 47.2668 39.2373 47.3695 39.62C47.4815 39.9933 47.6402 40.3153 47.8455 40.586C48.0508 40.8567 48.3075 41.0667 48.6155 41.216C48.9235 41.3653 49.2782 41.44 49.6795 41.44C50.1182 41.44 50.4915 41.356 50.7995 41.188C51.1168 41.0107 51.3735 40.7773 51.5695 40.488C51.7655 40.1987 51.9102 39.872 52.0035 39.508C52.0968 39.144 52.1435 38.766 52.1435 38.374ZM60.2868 40.88L62.1908 34.748H63.0448L60.6928 42H59.7968L58.2148 35.91H58.1868L56.5768 42H55.5688L53.3568 34.748H54.1968L56.0728 40.936L57.7528 34.748H58.6908L60.2868 40.88ZM69.0883 37.87C69.0883 37.5153 69.037 37.184 68.9343 36.876C68.841 36.5587 68.6963 36.288 68.5003 36.064C68.3136 35.8307 68.0756 35.6487 67.7863 35.518C67.497 35.378 67.1656 35.308 66.7923 35.308C66.419 35.308 66.0876 35.378 65.7983 35.518C65.5183 35.658 65.2756 35.8447 65.0703 36.078C64.8743 36.3113 64.7156 36.582 64.5943 36.89C64.473 37.198 64.3936 37.5247 64.3563 37.87H69.0883ZM64.3563 38.57C64.3563 38.962 64.4076 39.3353 64.5103 39.69C64.613 40.0353 64.7623 40.3387 64.9583 40.6C65.1636 40.852 65.4203 41.0573 65.7283 41.216C66.0363 41.3653 66.391 41.44 66.7923 41.44C67.343 41.44 67.8143 41.2953 68.2063 41.006C68.5983 40.7167 68.8596 40.306 68.9903 39.774H69.9283C69.8256 40.1193 69.6903 40.4413 69.5223 40.74C69.3543 41.0293 69.1443 41.286 68.8923 41.51C68.6403 41.7247 68.3416 41.8927 67.9963 42.014C67.651 42.1353 67.2496 42.196 66.7923 42.196C66.2136 42.196 65.7143 42.098 65.2943 41.902C64.8743 41.706 64.529 41.44 64.2583 41.104C63.9876 40.7587 63.787 40.3573 63.6563 39.9C63.5256 39.4333 63.4603 38.934 63.4603 38.402C63.4603 37.87 63.535 37.3707 63.6843 36.904C63.843 36.4373 64.0623 36.0313 64.3423 35.686C64.6316 35.3313 64.9816 35.056 65.3923 34.86C65.803 34.6547 66.2696 34.552 66.7923 34.552C67.791 34.552 68.575 34.8973 69.1443 35.588C69.7136 36.2693 69.9936 37.2633 69.9843 38.57H64.3563ZM72.0796 42H71.2396V34.748H72.0796V36.106H72.1076C72.3409 35.5273 72.6396 35.126 73.0036 34.902C73.3769 34.6687 73.8669 34.552 74.4736 34.552V35.462C73.9976 35.4527 73.6056 35.5273 73.2976 35.686C72.9896 35.8447 72.7423 36.0593 72.5556 36.33C72.3783 36.6007 72.2523 36.9227 72.1776 37.296C72.1123 37.66 72.0796 38.0427 72.0796 38.444V42ZM75.9297 39.732C76.0604 40.3573 76.2937 40.8007 76.6297 41.062C76.9751 41.314 77.4651 41.44 78.0997 41.44C78.4077 41.44 78.6737 41.4027 78.8977 41.328C79.1217 41.2533 79.3037 41.1553 79.4437 41.034C79.5931 40.9033 79.7051 40.7587 79.7797 40.6C79.8544 40.4413 79.8917 40.2733 79.8917 40.096C79.8917 39.7413 79.7751 39.48 79.5417 39.312C79.3177 39.1347 79.0331 38.9993 78.6877 38.906C78.3424 38.8033 77.9691 38.7193 77.5677 38.654C77.1664 38.5793 76.7931 38.472 76.4477 38.332C76.1024 38.192 75.8131 37.9913 75.5797 37.73C75.3557 37.4687 75.2437 37.1 75.2437 36.624C75.2437 36.0173 75.4631 35.5227 75.9017 35.14C76.3497 34.748 76.9797 34.552 77.7917 34.552C78.5757 34.552 79.2104 34.7293 79.6957 35.084C80.1904 35.4293 80.4891 36.0127 80.5917 36.834H79.7377C79.6631 36.274 79.4484 35.882 79.0937 35.658C78.7484 35.4247 78.3097 35.308 77.7777 35.308C77.2457 35.308 76.8397 35.4247 76.5597 35.658C76.2797 35.882 76.1397 36.1807 76.1397 36.554C76.1397 36.8807 76.2517 37.1327 76.4757 37.31C76.7091 37.478 76.9984 37.618 77.3437 37.73C77.6891 37.8327 78.0624 37.926 78.4637 38.01C78.8651 38.094 79.2384 38.2153 79.5837 38.374C79.9291 38.5233 80.2137 38.7287 80.4377 38.99C80.6711 39.2513 80.7877 39.6153 80.7877 40.082C80.7877 40.4273 80.7131 40.7353 80.5637 41.006C80.4144 41.2673 80.2091 41.4867 79.9477 41.664C79.6864 41.8413 79.3737 41.972 79.0097 42.056C78.6551 42.1493 78.2631 42.196 77.8337 42.196C77.4044 42.196 77.0217 42.1307 76.6857 42C76.3591 41.8787 76.0791 41.706 75.8457 41.482C75.6124 41.258 75.4304 40.9967 75.2997 40.698C75.1691 40.3993 75.0944 40.0773 75.0757 39.732H75.9297ZM84.7682 35.448V34.748H85.8462V33.6C85.8462 33.0213 85.9629 32.564 86.1962 32.228C86.4295 31.892 86.8262 31.724 87.3862 31.724C87.5169 31.724 87.6382 31.7287 87.7502 31.738C87.8622 31.7473 87.9742 31.7613 88.0862 31.78V32.55C87.8995 32.5033 87.7315 32.48 87.5822 32.48C87.3675 32.48 87.1995 32.522 87.0782 32.606C86.9569 32.6807 86.8682 32.7833 86.8122 32.914C86.7562 33.0447 86.7189 33.194 86.7002 33.362C86.6909 33.5207 86.6862 33.684 86.6862 33.852V34.748H88.0862V35.448H86.6862V42H85.8462V35.448H84.7682ZM89.8547 42H89.0147V34.748H89.8547V36.106H89.8827C90.116 35.5273 90.4147 35.126 90.7787 34.902C91.152 34.6687 91.642 34.552 92.2487 34.552V35.462C91.7727 35.4527 91.3807 35.5273 91.0727 35.686C90.7647 35.8447 90.5174 36.0593 90.3307 36.33C90.1534 36.6007 90.0274 36.9227 89.9527 37.296C89.8874 37.66 89.8547 38.0427 89.8547 38.444V42ZM95.8527 42.196C95.386 42.1867 94.9474 42.1027 94.5367 41.944C94.1354 41.7853 93.7807 41.5473 93.4727 41.23C93.174 40.9127 92.936 40.516 92.7587 40.04C92.5814 39.564 92.4927 39.0087 92.4927 38.374C92.4927 37.842 92.5627 37.3473 92.7027 36.89C92.8427 36.4233 93.0527 36.0173 93.3327 35.672C93.6127 35.3267 93.9627 35.056 94.3827 34.86C94.8027 34.6547 95.2927 34.552 95.8527 34.552C96.422 34.552 96.9167 34.6547 97.3367 34.86C97.7567 35.056 98.1067 35.3267 98.3867 35.672C98.6667 36.008 98.872 36.4093 99.0027 36.876C99.1427 37.3427 99.2127 37.842 99.2127 38.374C99.2127 38.9527 99.1334 39.4753 98.9747 39.942C98.816 40.4087 98.5874 40.81 98.2887 41.146C97.9994 41.482 97.6447 41.7433 97.2247 41.93C96.814 42.1073 96.3567 42.196 95.8527 42.196ZM98.3167 38.374C98.3167 37.9447 98.27 37.5433 98.1767 37.17C98.0834 36.7967 97.9387 36.4747 97.7427 36.204C97.5467 35.924 97.2947 35.7047 96.9867 35.546C96.6787 35.3873 96.3007 35.308 95.8527 35.308C95.414 35.308 95.036 35.3967 94.7187 35.574C94.4107 35.742 94.1587 35.9707 93.9627 36.26C93.7667 36.54 93.622 36.8667 93.5287 37.24C93.4354 37.604 93.3887 37.982 93.3887 38.374C93.3887 38.822 93.44 39.2373 93.5427 39.62C93.6547 39.9933 93.8134 40.3153 94.0187 40.586C94.224 40.8567 94.4807 41.0667 94.7887 41.216C95.0967 41.3653 95.4514 41.44 95.8527 41.44C96.2914 41.44 96.6647 41.356 96.9727 41.188C97.29 41.0107 97.5467 40.7773 97.7427 40.488C97.9387 40.1987 98.0834 39.872 98.1767 39.508C98.27 39.144 98.3167 38.766 98.3167 38.374ZM101.056 42H100.216V34.748H101.056V35.84H101.084C101.299 35.42 101.607 35.1027 102.008 34.888C102.409 34.664 102.848 34.552 103.324 34.552C103.66 34.552 103.945 34.5893 104.178 34.664C104.411 34.7387 104.607 34.8413 104.766 34.972C104.934 35.0933 105.069 35.238 105.172 35.406C105.284 35.574 105.377 35.756 105.452 35.952C105.695 35.476 106.017 35.126 106.418 34.902C106.829 34.6687 107.295 34.552 107.818 34.552C108.313 34.552 108.705 34.636 108.994 34.804C109.293 34.9627 109.521 35.1773 109.68 35.448C109.839 35.7093 109.941 36.0127 109.988 36.358C110.044 36.7033 110.072 37.058 110.072 37.422V42H109.232V36.988C109.232 36.4653 109.12 36.0547 108.896 35.756C108.681 35.4573 108.275 35.308 107.678 35.308C107.37 35.308 107.071 35.378 106.782 35.518C106.502 35.6487 106.255 35.854 106.04 36.134C105.947 36.2553 105.867 36.4 105.802 36.568C105.746 36.7267 105.699 36.8947 105.662 37.072C105.625 37.2493 105.597 37.4267 105.578 37.604C105.569 37.7813 105.564 37.9447 105.564 38.094V42H104.724V36.988C104.724 36.4653 104.612 36.0547 104.388 35.756C104.173 35.4573 103.767 35.308 103.17 35.308C102.862 35.308 102.563 35.378 102.274 35.518C101.994 35.6487 101.747 35.854 101.532 36.134C101.439 36.2553 101.359 36.4 101.294 36.568C101.238 36.7267 101.191 36.8947 101.154 37.072C101.117 37.2493 101.089 37.4267 101.07 37.604C101.061 37.7813 101.056 37.9447 101.056 38.094V42ZM114.277 34.748H115.187L117.539 40.964L119.891 34.748H120.801L117.987 42H117.049L114.277 34.748ZM121.507 42V34.748H122.347V42H121.507ZM121.465 33.166V31.92H122.389V33.166H121.465ZM129.664 38.346C129.664 37.9353 129.608 37.548 129.496 37.184C129.384 36.8107 129.221 36.4887 129.006 36.218C128.801 35.938 128.544 35.7187 128.236 35.56C127.937 35.392 127.597 35.308 127.214 35.308C126.775 35.308 126.397 35.3967 126.08 35.574C125.763 35.742 125.501 35.9753 125.296 36.274C125.091 36.5727 124.941 36.9227 124.848 37.324C124.755 37.716 124.717 38.1407 124.736 38.598C124.736 39.0553 124.797 39.4613 124.918 39.816C125.049 40.1613 125.226 40.4553 125.45 40.698C125.674 40.9407 125.935 41.1273 126.234 41.258C126.533 41.3793 126.859 41.44 127.214 41.44C127.606 41.44 127.956 41.3607 128.264 41.202C128.572 41.0433 128.829 40.8287 129.034 40.558C129.239 40.278 129.393 39.9513 129.496 39.578C129.608 39.1953 129.664 38.7847 129.664 38.346ZM129.664 31.92H130.504V42H129.664V40.726H129.636C129.515 40.9687 129.356 41.1833 129.16 41.37C128.973 41.5473 128.763 41.6967 128.53 41.818C128.306 41.9393 128.073 42.0327 127.83 42.098C127.587 42.1633 127.349 42.196 127.116 42.196C126.528 42.196 126.029 42.098 125.618 41.902C125.207 41.706 124.867 41.44 124.596 41.104C124.335 40.7587 124.143 40.3527 124.022 39.886C123.901 39.4193 123.84 38.92 123.84 38.388C123.84 37.884 123.905 37.3987 124.036 36.932C124.167 36.4653 124.363 36.0593 124.624 35.714C124.895 35.3593 125.231 35.0793 125.632 34.874C126.043 34.6593 126.523 34.552 127.074 34.552C127.587 34.552 128.077 34.6687 128.544 34.902C129.02 35.126 129.393 35.462 129.664 35.91V31.92ZM137.453 37.87C137.453 37.5153 137.401 37.184 137.299 36.876C137.205 36.5587 137.061 36.288 136.865 36.064C136.678 35.8307 136.44 35.6487 136.151 35.518C135.861 35.378 135.53 35.308 135.157 35.308C134.783 35.308 134.452 35.378 134.163 35.518C133.883 35.658 133.64 35.8447 133.435 36.078C133.239 36.3113 133.08 36.582 132.959 36.89C132.837 37.198 132.758 37.5247 132.721 37.87H137.453ZM132.721 38.57C132.721 38.962 132.772 39.3353 132.875 39.69C132.977 40.0353 133.127 40.3387 133.323 40.6C133.528 40.852 133.785 41.0573 134.093 41.216C134.401 41.3653 134.755 41.44 135.157 41.44C135.707 41.44 136.179 41.2953 136.571 41.006C136.963 40.7167 137.224 40.306 137.355 39.774H138.293C138.19 40.1193 138.055 40.4413 137.887 40.74C137.719 41.0293 137.509 41.286 137.257 41.51C137.005 41.7247 136.706 41.8927 136.361 42.014C136.015 42.1353 135.614 42.196 135.157 42.196C134.578 42.196 134.079 42.098 133.659 41.902C133.239 41.706 132.893 41.44 132.623 41.104C132.352 40.7587 132.151 40.3573 132.021 39.9C131.89 39.4333 131.825 38.934 131.825 38.402C131.825 37.87 131.899 37.3707 132.049 36.904C132.207 36.4373 132.427 36.0313 132.707 35.686C132.996 35.3313 133.346 35.056 133.757 34.86C134.167 34.6547 134.634 34.552 135.157 34.552C136.155 34.552 136.939 34.8973 137.509 35.588C138.078 36.2693 138.358 37.2633 138.349 38.57H132.721ZM142.446 42.196C141.979 42.1867 141.541 42.1027 141.13 41.944C140.729 41.7853 140.374 41.5473 140.066 41.23C139.767 40.9127 139.529 40.516 139.352 40.04C139.175 39.564 139.086 39.0087 139.086 38.374C139.086 37.842 139.156 37.3473 139.296 36.89C139.436 36.4233 139.646 36.0173 139.926 35.672C140.206 35.3267 140.556 35.056 140.976 34.86C141.396 34.6547 141.886 34.552 142.446 34.552C143.015 34.552 143.51 34.6547 143.93 34.86C144.35 35.056 144.7 35.3267 144.98 35.672C145.26 36.008 145.465 36.4093 145.596 36.876C145.736 37.3427 145.806 37.842 145.806 38.374C145.806 38.9527 145.727 39.4753 145.568 39.942C145.409 40.4087 145.181 40.81 144.882 41.146C144.593 41.482 144.238 41.7433 143.818 41.93C143.407 42.1073 142.95 42.196 142.446 42.196ZM144.91 38.374C144.91 37.9447 144.863 37.5433 144.77 37.17C144.677 36.7967 144.532 36.4747 144.336 36.204C144.14 35.924 143.888 35.7047 143.58 35.546C143.272 35.3873 142.894 35.308 142.446 35.308C142.007 35.308 141.629 35.3967 141.312 35.574C141.004 35.742 140.752 35.9707 140.556 36.26C140.36 36.54 140.215 36.8667 140.122 37.24C140.029 37.604 139.982 37.982 139.982 38.374C139.982 38.822 140.033 39.2373 140.136 39.62C140.248 39.9933 140.407 40.3153 140.612 40.586C140.817 40.8567 141.074 41.0667 141.382 41.216C141.69 41.3653 142.045 41.44 142.446 41.44C142.885 41.44 143.258 41.356 143.566 41.188C143.883 41.0107 144.14 40.7773 144.336 40.488C144.532 40.1987 144.677 39.872 144.77 39.508C144.863 39.144 144.91 38.766 144.91 38.374ZM147.411 39.732C147.542 40.3573 147.775 40.8007 148.111 41.062C148.457 41.314 148.947 41.44 149.581 41.44C149.889 41.44 150.155 41.4027 150.379 41.328C150.603 41.2533 150.785 41.1553 150.925 41.034C151.075 40.9033 151.187 40.7587 151.261 40.6C151.336 40.4413 151.373 40.2733 151.373 40.096C151.373 39.7413 151.257 39.48 151.023 39.312C150.799 39.1347 150.515 38.9993 150.169 38.906C149.824 38.8033 149.451 38.7193 149.049 38.654C148.648 38.5793 148.275 38.472 147.929 38.332C147.584 38.192 147.295 37.9913 147.061 37.73C146.837 37.4687 146.725 37.1 146.725 36.624C146.725 36.0173 146.945 35.5227 147.383 35.14C147.831 34.748 148.461 34.552 149.273 34.552C150.057 34.552 150.692 34.7293 151.177 35.084C151.672 35.4293 151.971 36.0127 152.073 36.834H151.219C151.145 36.274 150.93 35.882 150.575 35.658C150.23 35.4247 149.791 35.308 149.259 35.308C148.727 35.308 148.321 35.4247 148.041 35.658C147.761 35.882 147.621 36.1807 147.621 36.554C147.621 36.8807 147.733 37.1327 147.957 37.31C148.191 37.478 148.48 37.618 148.825 37.73C149.171 37.8327 149.544 37.926 149.945 38.01C150.347 38.094 150.72 38.2153 151.065 38.374C151.411 38.5233 151.695 38.7287 151.919 38.99C152.153 39.2513 152.269 39.6153 152.269 40.082C152.269 40.4273 152.195 40.7353 152.045 41.006C151.896 41.2673 151.691 41.4867 151.429 41.664C151.168 41.8413 150.855 41.972 150.491 42.056C150.137 42.1493 149.745 42.196 149.315 42.196C148.886 42.196 148.503 42.1307 148.167 42C147.841 41.8787 147.561 41.706 147.327 41.482C147.094 41.258 146.912 40.9967 146.781 40.698C146.651 40.3993 146.576 40.0773 146.557 39.732H147.411Z" fill="white"/>
<circle cx="9.5" cy="9.5" r="9.5" transform="matrix(-0.956772 -0.290839 -0.290839 0.956772 95.7046 5.52588)" fill="#5E4265"/>
</svg>
