<svg width="115" height="64" viewBox="0 0 115 64" fill="none" xmlns="http://www.w3.org/2000/svg">
<circle cx="7.04571" cy="7.04571" r="7.04571" transform="matrix(-0.956772 -0.290839 -0.290839 0.956772 18.0083 50.0981)" fill="#5E4265"/>
<line x1="2" y1="23.5" x2="72" y2="23.5" stroke="#424765"/>
<path d="M2.636 9.692C2.636 9.06 2.72 8.468 2.888 7.916C3.064 7.364 3.32 6.884 3.656 6.476C3.992 6.06 4.408 5.732 4.904 5.492C5.4 5.252 5.972 5.132 6.62 5.132C7.292 5.132 7.88 5.252 8.384 5.492C8.896 5.724 9.32 6.048 9.656 6.464C10 6.872 10.256 7.356 10.424 7.916C10.6 8.468 10.688 9.06 10.688 9.692C10.688 10.316 10.6 10.904 10.424 11.456C10.256 12 10.004 12.48 9.668 12.896C9.332 13.304 8.912 13.628 8.408 13.868C7.904 14.108 7.32 14.228 6.656 14.228C5.992 14.228 5.408 14.108 4.904 13.868C4.4 13.628 3.98 13.304 3.644 12.896C3.308 12.48 3.056 12 2.888 11.456C2.72 10.904 2.636 10.316 2.636 9.692ZM6.668 13.532C7.228 13.532 7.708 13.428 8.108 13.22C8.516 13.004 8.848 12.72 9.104 12.368C9.368 12.016 9.56 11.608 9.68 11.144C9.808 10.68 9.872 10.196 9.872 9.692C9.872 9.092 9.796 8.556 9.644 8.084C9.5 7.604 9.288 7.196 9.008 6.86C8.728 6.524 8.388 6.268 7.988 6.092C7.588 5.916 7.14 5.828 6.644 5.828C6.092 5.828 5.612 5.936 5.204 6.152C4.804 6.368 4.472 6.656 4.208 7.016C3.952 7.368 3.76 7.776 3.632 8.24C3.512 8.704 3.452 9.188 3.452 9.692C3.452 10.204 3.512 10.692 3.632 11.156C3.76 11.62 3.952 12.028 4.208 12.38C4.472 12.732 4.804 13.012 5.204 13.22C5.612 13.428 6.1 13.532 6.668 13.532ZM12.5638 14H11.8438V7.784H12.5638V8.648C12.8518 8.344 13.1478 8.096 13.4518 7.904C13.7638 7.712 14.1358 7.616 14.5678 7.616C14.9518 7.616 15.3078 7.684 15.6358 7.82C15.9638 7.948 16.2398 8.176 16.4638 8.504C16.6158 8.728 16.7038 8.96 16.7278 9.2C16.7598 9.432 16.7758 9.676 16.7758 9.932V14H16.0558V9.944C16.0558 9.384 15.9318 8.964 15.6838 8.684C15.4358 8.404 15.0238 8.264 14.4478 8.264C14.2238 8.264 14.0198 8.3 13.8358 8.372C13.6518 8.436 13.4838 8.524 13.3318 8.636C13.1878 8.748 13.0638 8.876 12.9598 9.02C12.8558 9.164 12.7758 9.316 12.7198 9.476C12.6478 9.676 12.6038 9.868 12.5878 10.052C12.5718 10.236 12.5638 10.436 12.5638 10.652V14ZM18.2598 14V5.36H18.9798V14H18.2598ZM20.349 14V7.784H21.069V14H20.349ZM20.313 6.428V5.36H21.105V6.428H20.313ZM23.2612 14H22.5412V7.784H23.2612V8.648C23.5492 8.344 23.8452 8.096 24.1492 7.904C24.4612 7.712 24.8332 7.616 25.2652 7.616C25.6492 7.616 26.0052 7.684 26.3332 7.82C26.6612 7.948 26.9372 8.176 27.1612 8.504C27.3132 8.728 27.4012 8.96 27.4252 9.2C27.4572 9.432 27.4732 9.676 27.4732 9.932V14H26.7532V9.944C26.7532 9.384 26.6292 8.964 26.3812 8.684C26.1332 8.404 25.7212 8.264 25.1452 8.264C24.9212 8.264 24.7172 8.3 24.5332 8.372C24.3492 8.436 24.1812 8.524 24.0292 8.636C23.8852 8.748 23.7612 8.876 23.6572 9.02C23.5532 9.164 23.4732 9.316 23.4172 9.476C23.3452 9.676 23.3012 9.868 23.2852 10.052C23.2692 10.236 23.2612 10.436 23.2612 10.652V14ZM33.3492 10.46C33.3492 10.156 33.3052 9.872 33.2172 9.608C33.1372 9.336 33.0132 9.104 32.8452 8.912C32.6852 8.712 32.4812 8.556 32.2332 8.444C31.9852 8.324 31.7012 8.264 31.3812 8.264C31.0612 8.264 30.7772 8.324 30.5292 8.444C30.2892 8.564 30.0812 8.724 29.9052 8.924C29.7372 9.124 29.6012 9.356 29.4972 9.62C29.3932 9.884 29.3252 10.164 29.2932 10.46H33.3492ZM29.2932 11.06C29.2932 11.396 29.3372 11.716 29.4252 12.02C29.5132 12.316 29.6412 12.576 29.8092 12.8C29.9852 13.016 30.2052 13.192 30.4692 13.328C30.7332 13.456 31.0372 13.52 31.3812 13.52C31.8532 13.52 32.2572 13.396 32.5932 13.148C32.9292 12.9 33.1532 12.548 33.2652 12.092H34.0692C33.9812 12.388 33.8652 12.664 33.7212 12.92C33.5772 13.168 33.3972 13.388 33.1812 13.58C32.9652 13.764 32.7092 13.908 32.4132 14.012C32.1172 14.116 31.7732 14.168 31.3812 14.168C30.8852 14.168 30.4572 14.084 30.0972 13.916C29.7372 13.748 29.4412 13.52 29.2092 13.232C28.9772 12.936 28.8052 12.592 28.6932 12.2C28.5812 11.8 28.5252 11.372 28.5252 10.916C28.5252 10.46 28.5892 10.032 28.7172 9.632C28.8532 9.232 29.0412 8.884 29.2812 8.588C29.5292 8.284 29.8292 8.048 30.1812 7.88C30.5332 7.704 30.9332 7.616 31.3812 7.616C32.2372 7.616 32.9092 7.912 33.3972 8.504C33.8852 9.088 34.1252 9.94 34.1172 11.06H29.2932ZM38.581 11.42C38.613 11.804 38.697 12.132 38.833 12.404C38.977 12.668 39.157 12.884 39.373 13.052C39.597 13.22 39.853 13.344 40.141 13.424C40.429 13.496 40.737 13.532 41.065 13.532C41.449 13.532 41.781 13.484 42.061 13.388C42.341 13.292 42.569 13.164 42.745 13.004C42.921 12.836 43.049 12.644 43.129 12.428C43.217 12.212 43.261 11.984 43.261 11.744C43.261 11.408 43.185 11.136 43.033 10.928C42.881 10.72 42.681 10.552 42.433 10.424C42.193 10.288 41.913 10.18 41.593 10.1C41.281 10.02 40.957 9.944 40.621 9.872C40.293 9.792 39.969 9.7 39.649 9.596C39.337 9.492 39.057 9.352 38.809 9.176C38.569 9 38.373 8.776 38.221 8.504C38.069 8.224 37.993 7.872 37.993 7.448C37.993 7.152 38.053 6.864 38.173 6.584C38.301 6.304 38.485 6.056 38.725 5.84C38.973 5.624 39.281 5.452 39.649 5.324C40.017 5.196 40.441 5.132 40.921 5.132C41.409 5.132 41.833 5.2 42.193 5.336C42.561 5.472 42.865 5.66 43.105 5.9C43.345 6.132 43.525 6.404 43.645 6.716C43.765 7.028 43.825 7.36 43.825 7.712H43.045C43.045 7.384 42.985 7.1 42.865 6.86C42.753 6.62 42.597 6.424 42.397 6.272C42.197 6.12 41.969 6.008 41.713 5.936C41.457 5.864 41.193 5.828 40.921 5.828C40.505 5.828 40.153 5.888 39.865 6.008C39.585 6.12 39.361 6.268 39.193 6.452C39.025 6.636 38.909 6.84 38.845 7.064C38.781 7.288 38.769 7.512 38.809 7.736C38.857 8.016 38.969 8.24 39.145 8.408C39.321 8.576 39.537 8.716 39.793 8.828C40.049 8.932 40.329 9.02 40.633 9.092C40.945 9.156 41.261 9.228 41.581 9.308C41.901 9.38 42.209 9.468 42.505 9.572C42.809 9.676 43.077 9.816 43.309 9.992C43.541 10.168 43.725 10.396 43.861 10.676C44.005 10.948 44.077 11.292 44.077 11.708C44.077 12.508 43.801 13.128 43.249 13.568C42.697 14.008 41.921 14.228 40.921 14.228C40.473 14.228 40.057 14.168 39.673 14.048C39.289 13.936 38.957 13.764 38.677 13.532C38.397 13.292 38.177 13 38.017 12.656C37.865 12.304 37.789 11.892 37.789 11.42H38.581ZM47.2969 14.024C47.2089 14.04 47.0929 14.068 46.9489 14.108C46.8049 14.148 46.6449 14.168 46.4689 14.168C46.1089 14.168 45.8329 14.08 45.6409 13.904C45.4569 13.72 45.3649 13.396 45.3649 12.932V8.384H44.4889V7.784H45.3649V6.056H46.0849V7.784H47.2489V8.384H46.0849V12.644C46.0849 12.796 46.0889 12.928 46.0969 13.04C46.1049 13.152 46.1289 13.244 46.1689 13.316C46.2089 13.388 46.2689 13.44 46.3489 13.472C46.4369 13.504 46.5569 13.52 46.7089 13.52C46.8049 13.52 46.9009 13.512 46.9969 13.496C47.1009 13.48 47.2009 13.46 47.2969 13.436V14.024ZM50.5647 14.168C50.1647 14.16 49.7887 14.088 49.4367 13.952C49.0927 13.816 48.7887 13.612 48.5247 13.34C48.2687 13.068 48.0647 12.728 47.9127 12.32C47.7607 11.912 47.6847 11.436 47.6847 10.892C47.6847 10.436 47.7447 10.012 47.8647 9.62C47.9847 9.22 48.1647 8.872 48.4047 8.576C48.6447 8.28 48.9447 8.048 49.3047 7.88C49.6647 7.704 50.0847 7.616 50.5647 7.616C51.0527 7.616 51.4767 7.704 51.8367 7.88C52.1967 8.048 52.4967 8.28 52.7367 8.576C52.9767 8.864 53.1527 9.208 53.2647 9.608C53.3847 10.008 53.4447 10.436 53.4447 10.892C53.4447 11.388 53.3767 11.836 53.2407 12.236C53.1047 12.636 52.9087 12.98 52.6527 13.268C52.4047 13.556 52.1007 13.78 51.7407 13.94C51.3887 14.092 50.9967 14.168 50.5647 14.168ZM52.6767 10.892C52.6767 10.524 52.6367 10.18 52.5567 9.86C52.4767 9.54 52.3527 9.264 52.1847 9.032C52.0167 8.792 51.8007 8.604 51.5367 8.468C51.2727 8.332 50.9487 8.264 50.5647 8.264C50.1887 8.264 49.8647 8.34 49.5927 8.492C49.3287 8.636 49.1127 8.832 48.9447 9.08C48.7767 9.32 48.6527 9.6 48.5727 9.92C48.4927 10.232 48.4527 10.556 48.4527 10.892C48.4527 11.276 48.4967 11.632 48.5847 11.96C48.6807 12.28 48.8167 12.556 48.9927 12.788C49.1687 13.02 49.3887 13.2 49.6527 13.328C49.9167 13.456 50.2207 13.52 50.5647 13.52C50.9407 13.52 51.2607 13.448 51.5247 13.304C51.7967 13.152 52.0167 12.952 52.1847 12.704C52.3527 12.456 52.4767 12.176 52.5567 11.864C52.6367 11.552 52.6767 11.228 52.6767 10.892ZM55.1567 14H54.4367V7.784H55.1567V8.948H55.1807C55.3807 8.452 55.6367 8.108 55.9487 7.916C56.2687 7.716 56.6887 7.616 57.2087 7.616V8.396C56.8007 8.388 56.4647 8.452 56.2007 8.588C55.9367 8.724 55.7247 8.908 55.5647 9.14C55.4127 9.372 55.3047 9.648 55.2407 9.968C55.1847 10.28 55.1567 10.608 55.1567 10.952V14ZM62.3259 10.46C62.3259 10.156 62.2819 9.872 62.1939 9.608C62.1139 9.336 61.9899 9.104 61.8219 8.912C61.6619 8.712 61.4579 8.556 61.2099 8.444C60.9619 8.324 60.6779 8.264 60.3579 8.264C60.0379 8.264 59.7539 8.324 59.5059 8.444C59.2659 8.564 59.0579 8.724 58.8819 8.924C58.7139 9.124 58.5779 9.356 58.4739 9.62C58.3699 9.884 58.3019 10.164 58.2699 10.46H62.3259ZM58.2699 11.06C58.2699 11.396 58.3139 11.716 58.4019 12.02C58.4899 12.316 58.6179 12.576 58.7859 12.8C58.9619 13.016 59.1819 13.192 59.4459 13.328C59.7099 13.456 60.0139 13.52 60.3579 13.52C60.8299 13.52 61.2339 13.396 61.5699 13.148C61.9059 12.9 62.1299 12.548 62.2419 12.092H63.0459C62.9579 12.388 62.8419 12.664 62.6979 12.92C62.5539 13.168 62.3739 13.388 62.1579 13.58C61.9419 13.764 61.6859 13.908 61.3899 14.012C61.0939 14.116 60.7499 14.168 60.3579 14.168C59.8619 14.168 59.4339 14.084 59.0739 13.916C58.7139 13.748 58.4179 13.52 58.1859 13.232C57.9539 12.936 57.7819 12.592 57.6699 12.2C57.5579 11.8 57.5019 11.372 57.5019 10.916C57.5019 10.46 57.5659 10.032 57.6939 9.632C57.8299 9.232 58.0179 8.884 58.2579 8.588C58.5059 8.284 58.8059 8.048 59.1579 7.88C59.5099 7.704 59.9099 7.616 60.3579 7.616C61.2139 7.616 61.8859 7.912 62.3739 8.504C62.8619 9.088 63.1019 9.94 63.0939 11.06H58.2699ZM67.5577 11.42C67.5897 11.804 67.6737 12.132 67.8097 12.404C67.9537 12.668 68.1337 12.884 68.3497 13.052C68.5737 13.22 68.8297 13.344 69.1177 13.424C69.4057 13.496 69.7137 13.532 70.0417 13.532C70.4257 13.532 70.7577 13.484 71.0377 13.388C71.3177 13.292 71.5457 13.164 71.7217 13.004C71.8977 12.836 72.0257 12.644 72.1057 12.428C72.1937 12.212 72.2377 11.984 72.2377 11.744C72.2377 11.408 72.1617 11.136 72.0097 10.928C71.8577 10.72 71.6577 10.552 71.4097 10.424C71.1697 10.288 70.8897 10.18 70.5697 10.1C70.2577 10.02 69.9337 9.944 69.5977 9.872C69.2697 9.792 68.9457 9.7 68.6257 9.596C68.3137 9.492 68.0337 9.352 67.7857 9.176C67.5457 9 67.3497 8.776 67.1977 8.504C67.0457 8.224 66.9697 7.872 66.9697 7.448C66.9697 7.152 67.0297 6.864 67.1497 6.584C67.2777 6.304 67.4617 6.056 67.7017 5.84C67.9497 5.624 68.2577 5.452 68.6257 5.324C68.9937 5.196 69.4177 5.132 69.8977 5.132C70.3857 5.132 70.8097 5.2 71.1697 5.336C71.5377 5.472 71.8417 5.66 72.0817 5.9C72.3217 6.132 72.5017 6.404 72.6217 6.716C72.7417 7.028 72.8017 7.36 72.8017 7.712H72.0217C72.0217 7.384 71.9617 7.1 71.8417 6.86C71.7297 6.62 71.5737 6.424 71.3737 6.272C71.1737 6.12 70.9457 6.008 70.6897 5.936C70.4337 5.864 70.1697 5.828 69.8977 5.828C69.4817 5.828 69.1297 5.888 68.8417 6.008C68.5617 6.12 68.3377 6.268 68.1697 6.452C68.0017 6.636 67.8857 6.84 67.8217 7.064C67.7577 7.288 67.7457 7.512 67.7857 7.736C67.8337 8.016 67.9457 8.24 68.1217 8.408C68.2977 8.576 68.5137 8.716 68.7697 8.828C69.0257 8.932 69.3057 9.02 69.6097 9.092C69.9217 9.156 70.2377 9.228 70.5577 9.308C70.8777 9.38 71.1857 9.468 71.4817 9.572C71.7857 9.676 72.0537 9.816 72.2857 9.992C72.5177 10.168 72.7017 10.396 72.8377 10.676C72.9817 10.948 73.0537 11.292 73.0537 11.708C73.0537 12.508 72.7777 13.128 72.2257 13.568C71.6737 14.008 70.8977 14.228 69.8977 14.228C69.4497 14.228 69.0337 14.168 68.6497 14.048C68.2657 13.936 67.9337 13.764 67.6537 13.532C67.3737 13.292 67.1537 13 66.9937 12.656C66.8417 12.304 66.7657 11.892 66.7657 11.42H67.5577ZM78.5896 10.46C78.5896 10.156 78.5456 9.872 78.4576 9.608C78.3776 9.336 78.2536 9.104 78.0856 8.912C77.9256 8.712 77.7216 8.556 77.4736 8.444C77.2256 8.324 76.9416 8.264 76.6216 8.264C76.3016 8.264 76.0176 8.324 75.7696 8.444C75.5296 8.564 75.3216 8.724 75.1456 8.924C74.9776 9.124 74.8416 9.356 74.7376 9.62C74.6336 9.884 74.5656 10.164 74.5336 10.46H78.5896ZM74.5336 11.06C74.5336 11.396 74.5776 11.716 74.6656 12.02C74.7536 12.316 74.8816 12.576 75.0496 12.8C75.2256 13.016 75.4456 13.192 75.7096 13.328C75.9736 13.456 76.2776 13.52 76.6216 13.52C77.0936 13.52 77.4976 13.396 77.8336 13.148C78.1696 12.9 78.3936 12.548 78.5056 12.092H79.3096C79.2216 12.388 79.1056 12.664 78.9616 12.92C78.8176 13.168 78.6376 13.388 78.4216 13.58C78.2056 13.764 77.9496 13.908 77.6536 14.012C77.3576 14.116 77.0136 14.168 76.6216 14.168C76.1256 14.168 75.6976 14.084 75.3376 13.916C74.9776 13.748 74.6816 13.52 74.4496 13.232C74.2176 12.936 74.0456 12.592 73.9336 12.2C73.8216 11.8 73.7656 11.372 73.7656 10.916C73.7656 10.46 73.8296 10.032 73.9576 9.632C74.0936 9.232 74.2816 8.884 74.5216 8.588C74.7696 8.284 75.0696 8.048 75.4216 7.88C75.7736 7.704 76.1736 7.616 76.6216 7.616C77.4776 7.616 78.1496 7.912 78.6376 8.504C79.1256 9.088 79.3656 9.94 79.3576 11.06H74.5336ZM80.8176 12.056C80.9296 12.592 81.1296 12.972 81.4176 13.196C81.7136 13.412 82.1336 13.52 82.6776 13.52C82.9416 13.52 83.1696 13.488 83.3616 13.424C83.5536 13.36 83.7096 13.276 83.8296 13.172C83.9576 13.06 84.0536 12.936 84.1176 12.8C84.1816 12.664 84.2136 12.52 84.2136 12.368C84.2136 12.064 84.1136 11.84 83.9136 11.696C83.7216 11.544 83.4776 11.428 83.1816 11.348C82.8856 11.26 82.5656 11.188 82.2216 11.132C81.8776 11.068 81.5576 10.976 81.2616 10.856C80.9656 10.736 80.7176 10.564 80.5176 10.34C80.3256 10.116 80.2296 9.8 80.2296 9.392C80.2296 8.872 80.4176 8.448 80.7936 8.12C81.1776 7.784 81.7176 7.616 82.4136 7.616C83.0856 7.616 83.6296 7.768 84.0456 8.072C84.4696 8.368 84.7256 8.868 84.8136 9.572H84.0816C84.0176 9.092 83.8336 8.756 83.5296 8.564C83.2336 8.364 82.8576 8.264 82.4016 8.264C81.9456 8.264 81.5976 8.364 81.3576 8.564C81.1176 8.756 80.9976 9.012 80.9976 9.332C80.9976 9.612 81.0936 9.828 81.2856 9.98C81.4856 10.124 81.7336 10.244 82.0296 10.34C82.3256 10.428 82.6456 10.508 82.9896 10.58C83.3336 10.652 83.6536 10.756 83.9496 10.892C84.2456 11.02 84.4896 11.196 84.6816 11.42C84.8816 11.644 84.9816 11.956 84.9816 12.356C84.9816 12.652 84.9176 12.916 84.7896 13.148C84.6616 13.372 84.4856 13.56 84.2616 13.712C84.0376 13.864 83.7696 13.976 83.4576 14.048C83.1536 14.128 82.8176 14.168 82.4496 14.168C82.0816 14.168 81.7536 14.112 81.4656 14C81.1856 13.896 80.9456 13.748 80.7456 13.556C80.5456 13.364 80.3896 13.14 80.2776 12.884C80.1656 12.628 80.1016 12.352 80.0856 12.056H80.8176ZM86.4576 12.056C86.5696 12.592 86.7696 12.972 87.0576 13.196C87.3536 13.412 87.7736 13.52 88.3176 13.52C88.5816 13.52 88.8096 13.488 89.0016 13.424C89.1936 13.36 89.3496 13.276 89.4696 13.172C89.5976 13.06 89.6936 12.936 89.7576 12.8C89.8216 12.664 89.8536 12.52 89.8536 12.368C89.8536 12.064 89.7536 11.84 89.5536 11.696C89.3616 11.544 89.1176 11.428 88.8216 11.348C88.5256 11.26 88.2056 11.188 87.8616 11.132C87.5176 11.068 87.1976 10.976 86.9016 10.856C86.6056 10.736 86.3576 10.564 86.1576 10.34C85.9656 10.116 85.8696 9.8 85.8696 9.392C85.8696 8.872 86.0576 8.448 86.4336 8.12C86.8176 7.784 87.3576 7.616 88.0536 7.616C88.7256 7.616 89.2696 7.768 89.6856 8.072C90.1096 8.368 90.3656 8.868 90.4536 9.572H89.7216C89.6576 9.092 89.4736 8.756 89.1696 8.564C88.8736 8.364 88.4976 8.264 88.0416 8.264C87.5856 8.264 87.2376 8.364 86.9976 8.564C86.7576 8.756 86.6376 9.012 86.6376 9.332C86.6376 9.612 86.7336 9.828 86.9256 9.98C87.1256 10.124 87.3736 10.244 87.6696 10.34C87.9656 10.428 88.2856 10.508 88.6296 10.58C88.9736 10.652 89.2936 10.756 89.5896 10.892C89.8856 11.02 90.1296 11.196 90.3216 11.42C90.5216 11.644 90.6216 11.956 90.6216 12.356C90.6216 12.652 90.5576 12.916 90.4296 13.148C90.3016 13.372 90.1256 13.56 89.9016 13.712C89.6776 13.864 89.4096 13.976 89.0976 14.048C88.7936 14.128 88.4576 14.168 88.0896 14.168C87.7216 14.168 87.3936 14.112 87.1056 14C86.8256 13.896 86.5856 13.748 86.3856 13.556C86.1856 13.364 86.0296 13.14 85.9176 12.884C85.8056 12.628 85.7416 12.352 85.7256 12.056H86.4576ZM91.5747 14V7.784H92.2947V14H91.5747ZM91.5387 6.428V5.36H92.3307V6.428H91.5387ZM96.2388 14.168C95.8388 14.16 95.4628 14.088 95.1108 13.952C94.7668 13.816 94.4628 13.612 94.1988 13.34C93.9428 13.068 93.7388 12.728 93.5868 12.32C93.4348 11.912 93.3588 11.436 93.3588 10.892C93.3588 10.436 93.4188 10.012 93.5388 9.62C93.6588 9.22 93.8388 8.872 94.0788 8.576C94.3188 8.28 94.6188 8.048 94.9788 7.88C95.3388 7.704 95.7588 7.616 96.2388 7.616C96.7268 7.616 97.1508 7.704 97.5108 7.88C97.8708 8.048 98.1708 8.28 98.4108 8.576C98.6508 8.864 98.8268 9.208 98.9388 9.608C99.0588 10.008 99.1188 10.436 99.1188 10.892C99.1188 11.388 99.0508 11.836 98.9148 12.236C98.7788 12.636 98.5828 12.98 98.3268 13.268C98.0788 13.556 97.7748 13.78 97.4148 13.94C97.0628 14.092 96.6708 14.168 96.2388 14.168ZM98.3508 10.892C98.3508 10.524 98.3108 10.18 98.2308 9.86C98.1508 9.54 98.0268 9.264 97.8588 9.032C97.6908 8.792 97.4748 8.604 97.2108 8.468C96.9468 8.332 96.6228 8.264 96.2388 8.264C95.8628 8.264 95.5388 8.34 95.2668 8.492C95.0028 8.636 94.7868 8.832 94.6188 9.08C94.4508 9.32 94.3268 9.6 94.2468 9.92C94.1668 10.232 94.1268 10.556 94.1268 10.892C94.1268 11.276 94.1708 11.632 94.2588 11.96C94.3548 12.28 94.4908 12.556 94.6668 12.788C94.8428 13.02 95.0628 13.2 95.3268 13.328C95.5908 13.456 95.8948 13.52 96.2388 13.52C96.6148 13.52 96.9348 13.448 97.1988 13.304C97.4708 13.152 97.6908 12.952 97.8588 12.704C98.0268 12.456 98.1508 12.176 98.2308 11.864C98.3108 11.552 98.3508 11.228 98.3508 10.892ZM100.795 14H100.075V7.784H100.795V8.648C101.083 8.344 101.379 8.096 101.683 7.904C101.995 7.712 102.367 7.616 102.799 7.616C103.183 7.616 103.539 7.684 103.867 7.82C104.195 7.948 104.471 8.176 104.695 8.504C104.847 8.728 104.935 8.96 104.959 9.2C104.991 9.432 105.007 9.676 105.007 9.932V14H104.287V9.944C104.287 9.384 104.163 8.964 103.915 8.684C103.667 8.404 103.255 8.264 102.679 8.264C102.455 8.264 102.251 8.3 102.067 8.372C101.883 8.436 101.715 8.524 101.563 8.636C101.419 8.748 101.295 8.876 101.191 9.02C101.087 9.164 101.007 9.316 100.951 9.476C100.879 9.676 100.835 9.868 100.819 10.052C100.803 10.236 100.795 10.436 100.795 10.652V14ZM106.803 12.056C106.915 12.592 107.115 12.972 107.403 13.196C107.699 13.412 108.119 13.52 108.663 13.52C108.927 13.52 109.155 13.488 109.347 13.424C109.539 13.36 109.695 13.276 109.815 13.172C109.943 13.06 110.039 12.936 110.103 12.8C110.167 12.664 110.199 12.52 110.199 12.368C110.199 12.064 110.099 11.84 109.899 11.696C109.707 11.544 109.463 11.428 109.167 11.348C108.871 11.26 108.551 11.188 108.207 11.132C107.863 11.068 107.543 10.976 107.247 10.856C106.951 10.736 106.703 10.564 106.503 10.34C106.311 10.116 106.215 9.8 106.215 9.392C106.215 8.872 106.403 8.448 106.779 8.12C107.163 7.784 107.703 7.616 108.399 7.616C109.071 7.616 109.615 7.768 110.031 8.072C110.455 8.368 110.711 8.868 110.799 9.572H110.067C110.003 9.092 109.819 8.756 109.515 8.564C109.219 8.364 108.843 8.264 108.387 8.264C107.931 8.264 107.583 8.364 107.343 8.564C107.103 8.756 106.983 9.012 106.983 9.332C106.983 9.612 107.079 9.828 107.271 9.98C107.471 10.124 107.719 10.244 108.015 10.34C108.311 10.428 108.631 10.508 108.975 10.58C109.319 10.652 109.639 10.756 109.935 10.892C110.231 11.02 110.475 11.196 110.667 11.42C110.867 11.644 110.967 11.956 110.967 12.356C110.967 12.652 110.903 12.916 110.775 13.148C110.647 13.372 110.471 13.56 110.247 13.712C110.023 13.864 109.755 13.976 109.443 14.048C109.139 14.128 108.803 14.168 108.435 14.168C108.067 14.168 107.739 14.112 107.451 14C107.171 13.896 106.931 13.748 106.731 13.556C106.531 13.364 106.375 13.14 106.263 12.884C106.151 12.628 106.087 12.352 106.071 12.056H106.803Z" fill="#6A6A6A"/>
<path d="M2.192 32.36H8.48V33.056H5.744V41H4.928V33.056H2.192V32.36ZM9.06903 41V34.784H9.78903V41H9.06903ZM9.03303 33.428V32.36H9.82503V33.428H9.03303ZM11.2132 41V32.36H11.9332V37.736L14.9812 34.784H15.9652L13.6372 37.028L16.2412 41H15.4372L13.1092 37.532L11.9332 38.648V41H11.2132ZM16.2292 32.36H22.5172V33.056H19.7812V41H18.9652V33.056H16.2292V32.36ZM24.3452 41.168C23.9452 41.16 23.5692 41.088 23.2172 40.952C22.8732 40.816 22.5692 40.612 22.3052 40.34C22.0492 40.068 21.8452 39.728 21.6932 39.32C21.5412 38.912 21.4652 38.436 21.4652 37.892C21.4652 37.436 21.5252 37.012 21.6452 36.62C21.7652 36.22 21.9452 35.872 22.1852 35.576C22.4252 35.28 22.7252 35.048 23.0852 34.88C23.4452 34.704 23.8652 34.616 24.3452 34.616C24.8332 34.616 25.2572 34.704 25.6172 34.88C25.9772 35.048 26.2772 35.28 26.5172 35.576C26.7572 35.864 26.9332 36.208 27.0452 36.608C27.1652 37.008 27.2252 37.436 27.2252 37.892C27.2252 38.388 27.1572 38.836 27.0212 39.236C26.8852 39.636 26.6892 39.98 26.4332 40.268C26.1852 40.556 25.8812 40.78 25.5212 40.94C25.1692 41.092 24.7772 41.168 24.3452 41.168ZM26.4572 37.892C26.4572 37.524 26.4172 37.18 26.3372 36.86C26.2572 36.54 26.1332 36.264 25.9652 36.032C25.7972 35.792 25.5812 35.604 25.3172 35.468C25.0532 35.332 24.7292 35.264 24.3452 35.264C23.9692 35.264 23.6452 35.34 23.3732 35.492C23.1092 35.636 22.8932 35.832 22.7252 36.08C22.5572 36.32 22.4332 36.6 22.3532 36.92C22.2732 37.232 22.2332 37.556 22.2332 37.892C22.2332 38.276 22.2772 38.632 22.3652 38.96C22.4612 39.28 22.5972 39.556 22.7732 39.788C22.9492 40.02 23.1692 40.2 23.4332 40.328C23.6972 40.456 24.0012 40.52 24.3452 40.52C24.7212 40.52 25.0412 40.448 25.3052 40.304C25.5772 40.152 25.7972 39.952 25.9652 39.704C26.1332 39.456 26.2572 39.176 26.3372 38.864C26.4172 38.552 26.4572 38.228 26.4572 37.892ZM28.1332 41V32.36H28.8532V37.736L31.9012 34.784H32.8852L30.5572 37.028L33.1612 41H32.3572L30.0292 37.532L28.8532 38.648V41H28.1332ZM36.153 32.36H37.005L39.609 40.04L42.201 32.36H43.053L40.053 41H39.153L36.153 32.36ZM43.4631 41V34.784H44.1831V41H43.4631ZM43.4271 33.428V32.36H44.2191V33.428H43.4271ZM50.4552 37.868C50.4552 37.516 50.4072 37.184 50.3112 36.872C50.2152 36.552 50.0752 36.276 49.8912 36.044C49.7152 35.804 49.4952 35.616 49.2312 35.48C48.9752 35.336 48.6832 35.264 48.3552 35.264C47.9792 35.264 47.6552 35.34 47.3832 35.492C47.1112 35.636 46.8872 35.836 46.7112 36.092C46.5352 36.348 46.4072 36.648 46.3272 36.992C46.2472 37.328 46.2152 37.692 46.2312 38.084C46.2312 38.476 46.2832 38.824 46.3872 39.128C46.4992 39.424 46.6512 39.676 46.8432 39.884C47.0352 40.092 47.2592 40.252 47.5152 40.364C47.7712 40.468 48.0512 40.52 48.3552 40.52C48.6912 40.52 48.9912 40.452 49.2552 40.316C49.5192 40.18 49.7392 39.996 49.9152 39.764C50.0912 39.524 50.2232 39.244 50.3112 38.924C50.4072 38.596 50.4552 38.244 50.4552 37.868ZM50.4552 32.36H51.1752V41H50.4552V39.908H50.4312C50.3272 40.116 50.1912 40.3 50.0232 40.46C49.8632 40.612 49.6832 40.74 49.4832 40.844C49.2912 40.948 49.0912 41.028 48.8832 41.084C48.6752 41.14 48.4712 41.168 48.2712 41.168C47.7672 41.168 47.3392 41.084 46.9872 40.916C46.6352 40.748 46.3432 40.52 46.1112 40.232C45.8872 39.936 45.7232 39.588 45.6192 39.188C45.5152 38.788 45.4632 38.36 45.4632 37.904C45.4632 37.472 45.5192 37.056 45.6312 36.656C45.7432 36.256 45.9112 35.908 46.1352 35.612C46.3672 35.308 46.6552 35.068 46.9992 34.892C47.3512 34.708 47.7632 34.616 48.2352 34.616C48.6752 34.616 49.0952 34.716 49.4952 34.916C49.9032 35.108 50.2232 35.396 50.4552 35.78V32.36ZM57.1312 37.46C57.1312 37.156 57.0872 36.872 56.9992 36.608C56.9192 36.336 56.7952 36.104 56.6272 35.912C56.4672 35.712 56.2632 35.556 56.0152 35.444C55.7672 35.324 55.4832 35.264 55.1632 35.264C54.8432 35.264 54.5592 35.324 54.3112 35.444C54.0712 35.564 53.8632 35.724 53.6872 35.924C53.5192 36.124 53.3832 36.356 53.2792 36.62C53.1752 36.884 53.1072 37.164 53.0752 37.46H57.1312ZM53.0752 38.06C53.0752 38.396 53.1192 38.716 53.2072 39.02C53.2952 39.316 53.4232 39.576 53.5912 39.8C53.7672 40.016 53.9872 40.192 54.2512 40.328C54.5152 40.456 54.8192 40.52 55.1632 40.52C55.6352 40.52 56.0392 40.396 56.3752 40.148C56.7112 39.9 56.9352 39.548 57.0472 39.092H57.8512C57.7632 39.388 57.6472 39.664 57.5032 39.92C57.3592 40.168 57.1792 40.388 56.9632 40.58C56.7472 40.764 56.4912 40.908 56.1952 41.012C55.8992 41.116 55.5552 41.168 55.1632 41.168C54.6672 41.168 54.2392 41.084 53.8792 40.916C53.5192 40.748 53.2232 40.52 52.9912 40.232C52.7592 39.936 52.5872 39.592 52.4752 39.2C52.3632 38.8 52.3072 38.372 52.3072 37.916C52.3072 37.46 52.3712 37.032 52.4992 36.632C52.6352 36.232 52.8232 35.884 53.0632 35.588C53.3112 35.284 53.6112 35.048 53.9632 34.88C54.3152 34.704 54.7152 34.616 55.1632 34.616C56.0192 34.616 56.6912 34.912 57.1792 35.504C57.6672 36.088 57.9072 36.94 57.8992 38.06H53.0752ZM61.4112 41.168C61.0112 41.16 60.6352 41.088 60.2832 40.952C59.9392 40.816 59.6352 40.612 59.3712 40.34C59.1152 40.068 58.9112 39.728 58.7592 39.32C58.6072 38.912 58.5312 38.436 58.5312 37.892C58.5312 37.436 58.5912 37.012 58.7112 36.62C58.8312 36.22 59.0112 35.872 59.2512 35.576C59.4912 35.28 59.7912 35.048 60.1512 34.88C60.5112 34.704 60.9312 34.616 61.4112 34.616C61.8992 34.616 62.3232 34.704 62.6832 34.88C63.0432 35.048 63.3432 35.28 63.5832 35.576C63.8232 35.864 63.9992 36.208 64.1112 36.608C64.2312 37.008 64.2912 37.436 64.2912 37.892C64.2912 38.388 64.2232 38.836 64.0872 39.236C63.9512 39.636 63.7552 39.98 63.4992 40.268C63.2512 40.556 62.9472 40.78 62.5872 40.94C62.2352 41.092 61.8432 41.168 61.4112 41.168ZM63.5232 37.892C63.5232 37.524 63.4832 37.18 63.4032 36.86C63.3232 36.54 63.1992 36.264 63.0312 36.032C62.8632 35.792 62.6472 35.604 62.3832 35.468C62.1192 35.332 61.7952 35.264 61.4112 35.264C61.0352 35.264 60.7112 35.34 60.4392 35.492C60.1752 35.636 59.9592 35.832 59.7912 36.08C59.6232 36.32 59.4992 36.6 59.4192 36.92C59.3392 37.232 59.2992 37.556 59.2992 37.892C59.2992 38.276 59.3432 38.632 59.4312 38.96C59.5272 39.28 59.6632 39.556 59.8392 39.788C60.0152 40.02 60.2352 40.2 60.4992 40.328C60.7632 40.456 61.0672 40.52 61.4112 40.52C61.7872 40.52 62.1072 40.448 62.3712 40.304C62.6432 40.152 62.8632 39.952 63.0312 39.704C63.1992 39.456 63.3232 39.176 63.4032 38.864C63.4832 38.552 63.5232 38.228 63.5232 37.892ZM68.299 41V32.36H71.455C72.015 32.36 72.475 32.424 72.835 32.552C73.203 32.68 73.491 32.856 73.699 33.08C73.915 33.304 74.063 33.564 74.143 33.86C74.231 34.148 74.275 34.452 74.275 34.772C74.275 35.252 74.175 35.648 73.975 35.96C73.783 36.272 73.531 36.52 73.219 36.704C72.907 36.88 72.551 37.004 72.151 37.076C71.759 37.148 71.363 37.184 70.963 37.184H69.115V41H68.299ZM70.987 36.488C71.371 36.488 71.715 36.464 72.019 36.416C72.323 36.368 72.579 36.28 72.787 36.152C73.003 36.016 73.167 35.836 73.279 35.612C73.399 35.38 73.459 35.08 73.459 34.712C73.459 34.168 73.279 33.756 72.919 33.476C72.567 33.196 72.003 33.056 71.227 33.056H69.115V36.488H70.987ZM77.6749 41.168C77.2749 41.16 76.8989 41.088 76.5469 40.952C76.2029 40.816 75.8989 40.612 75.6349 40.34C75.3789 40.068 75.1749 39.728 75.0229 39.32C74.8709 38.912 74.7949 38.436 74.7949 37.892C74.7949 37.436 74.8549 37.012 74.9749 36.62C75.0949 36.22 75.2749 35.872 75.5149 35.576C75.7549 35.28 76.0549 35.048 76.4149 34.88C76.7749 34.704 77.1949 34.616 77.6749 34.616C78.1629 34.616 78.5869 34.704 78.9469 34.88C79.3069 35.048 79.6069 35.28 79.8469 35.576C80.0869 35.864 80.2629 36.208 80.3749 36.608C80.4949 37.008 80.5549 37.436 80.5549 37.892C80.5549 38.388 80.4869 38.836 80.3509 39.236C80.2149 39.636 80.0189 39.98 79.7629 40.268C79.5149 40.556 79.2109 40.78 78.8509 40.94C78.4989 41.092 78.1069 41.168 77.6749 41.168ZM79.7869 37.892C79.7869 37.524 79.7469 37.18 79.6669 36.86C79.5869 36.54 79.4629 36.264 79.2949 36.032C79.1269 35.792 78.9109 35.604 78.6469 35.468C78.3829 35.332 78.0589 35.264 77.6749 35.264C77.2989 35.264 76.9749 35.34 76.7029 35.492C76.4389 35.636 76.2229 35.832 76.0549 36.08C75.8869 36.32 75.7629 36.6 75.6829 36.92C75.6029 37.232 75.5629 37.556 75.5629 37.892C75.5629 38.276 75.6069 38.632 75.6949 38.96C75.7909 39.28 75.9269 39.556 76.1029 39.788C76.2789 40.02 76.4989 40.2 76.7629 40.328C77.0269 40.456 77.3309 40.52 77.6749 40.52C78.0509 40.52 78.3709 40.448 78.6349 40.304C78.9069 40.152 79.1269 39.952 79.2949 39.704C79.4629 39.456 79.5869 39.176 79.6669 38.864C79.7469 38.552 79.7869 38.228 79.7869 37.892ZM81.9309 39.056C82.0429 39.592 82.2429 39.972 82.5309 40.196C82.8269 40.412 83.2469 40.52 83.7909 40.52C84.0549 40.52 84.2829 40.488 84.4749 40.424C84.6669 40.36 84.8229 40.276 84.9429 40.172C85.0709 40.06 85.1669 39.936 85.2309 39.8C85.2949 39.664 85.3269 39.52 85.3269 39.368C85.3269 39.064 85.2269 38.84 85.0269 38.696C84.8349 38.544 84.5909 38.428 84.2949 38.348C83.9989 38.26 83.6789 38.188 83.3349 38.132C82.9909 38.068 82.6709 37.976 82.3749 37.856C82.0789 37.736 81.8309 37.564 81.6309 37.34C81.4389 37.116 81.3429 36.8 81.3429 36.392C81.3429 35.872 81.5309 35.448 81.9069 35.12C82.2909 34.784 82.8309 34.616 83.5269 34.616C84.1989 34.616 84.7429 34.768 85.1589 35.072C85.5829 35.368 85.8389 35.868 85.9269 36.572H85.1949C85.1309 36.092 84.9469 35.756 84.6429 35.564C84.3469 35.364 83.9709 35.264 83.5149 35.264C83.0589 35.264 82.7109 35.364 82.4709 35.564C82.2309 35.756 82.1109 36.012 82.1109 36.332C82.1109 36.612 82.2069 36.828 82.3989 36.98C82.5989 37.124 82.8469 37.244 83.1429 37.34C83.4389 37.428 83.7589 37.508 84.1029 37.58C84.4469 37.652 84.7669 37.756 85.0629 37.892C85.3589 38.02 85.6029 38.196 85.7949 38.42C85.9949 38.644 86.0949 38.956 86.0949 39.356C86.0949 39.652 86.0309 39.916 85.9029 40.148C85.7749 40.372 85.5989 40.56 85.3749 40.712C85.1509 40.864 84.8829 40.976 84.5709 41.048C84.2669 41.128 83.9309 41.168 83.5629 41.168C83.1949 41.168 82.8669 41.112 82.5789 41C82.2989 40.896 82.0589 40.748 81.8589 40.556C81.6589 40.364 81.5029 40.14 81.3909 39.884C81.2789 39.628 81.2149 39.352 81.1989 39.056H81.9309ZM89.3349 41.024C89.2469 41.04 89.1309 41.068 88.9869 41.108C88.8429 41.148 88.6829 41.168 88.5069 41.168C88.1469 41.168 87.8709 41.08 87.6789 40.904C87.4949 40.72 87.4029 40.396 87.4029 39.932V35.384H86.5269V34.784H87.4029V33.056H88.1229V34.784H89.2869V35.384H88.1229V39.644C88.1229 39.796 88.1269 39.928 88.1349 40.04C88.1429 40.152 88.1669 40.244 88.2069 40.316C88.2469 40.388 88.3069 40.44 88.3869 40.472C88.4749 40.504 88.5949 40.52 88.7469 40.52C88.8429 40.52 88.9389 40.512 89.0349 40.496C89.1389 40.48 89.2389 40.46 89.3349 40.436V41.024ZM94.6307 37.46C94.6307 37.156 94.5867 36.872 94.4987 36.608C94.4187 36.336 94.2947 36.104 94.1267 35.912C93.9667 35.712 93.7627 35.556 93.5147 35.444C93.2667 35.324 92.9827 35.264 92.6627 35.264C92.3427 35.264 92.0587 35.324 91.8107 35.444C91.5707 35.564 91.3627 35.724 91.1867 35.924C91.0187 36.124 90.8827 36.356 90.7787 36.62C90.6747 36.884 90.6067 37.164 90.5747 37.46H94.6307ZM90.5747 38.06C90.5747 38.396 90.6187 38.716 90.7067 39.02C90.7947 39.316 90.9227 39.576 91.0907 39.8C91.2667 40.016 91.4867 40.192 91.7507 40.328C92.0147 40.456 92.3187 40.52 92.6627 40.52C93.1347 40.52 93.5387 40.396 93.8747 40.148C94.2107 39.9 94.4347 39.548 94.5467 39.092H95.3507C95.2627 39.388 95.1467 39.664 95.0027 39.92C94.8587 40.168 94.6787 40.388 94.4627 40.58C94.2467 40.764 93.9907 40.908 93.6947 41.012C93.3987 41.116 93.0547 41.168 92.6627 41.168C92.1667 41.168 91.7387 41.084 91.3787 40.916C91.0187 40.748 90.7227 40.52 90.4907 40.232C90.2587 39.936 90.0867 39.592 89.9747 39.2C89.8627 38.8 89.8067 38.372 89.8067 37.916C89.8067 37.46 89.8707 37.032 89.9987 36.632C90.1347 36.232 90.3227 35.884 90.5627 35.588C90.8107 35.284 91.1107 35.048 91.4627 34.88C91.8147 34.704 92.2147 34.616 92.6627 34.616C93.5187 34.616 94.1907 34.912 94.6787 35.504C95.1667 36.088 95.4067 36.94 95.3987 38.06H90.5747ZM101.239 37.868C101.239 37.516 101.191 37.184 101.095 36.872C100.999 36.552 100.859 36.276 100.675 36.044C100.499 35.804 100.279 35.616 100.015 35.48C99.7587 35.336 99.4667 35.264 99.1387 35.264C98.7627 35.264 98.4387 35.34 98.1667 35.492C97.8947 35.636 97.6707 35.836 97.4947 36.092C97.3187 36.348 97.1907 36.648 97.1107 36.992C97.0307 37.328 96.9987 37.692 97.0147 38.084C97.0147 38.476 97.0667 38.824 97.1707 39.128C97.2827 39.424 97.4347 39.676 97.6267 39.884C97.8187 40.092 98.0427 40.252 98.2987 40.364C98.5547 40.468 98.8347 40.52 99.1387 40.52C99.4747 40.52 99.7747 40.452 100.039 40.316C100.303 40.18 100.523 39.996 100.699 39.764C100.875 39.524 101.007 39.244 101.095 38.924C101.191 38.596 101.239 38.244 101.239 37.868ZM101.239 32.36H101.959V41H101.239V39.908H101.215C101.111 40.116 100.975 40.3 100.807 40.46C100.647 40.612 100.467 40.74 100.267 40.844C100.075 40.948 99.8747 41.028 99.6667 41.084C99.4587 41.14 99.2547 41.168 99.0547 41.168C98.5507 41.168 98.1227 41.084 97.7707 40.916C97.4187 40.748 97.1267 40.52 96.8947 40.232C96.6707 39.936 96.5067 39.588 96.4027 39.188C96.2987 38.788 96.2467 38.36 96.2467 37.904C96.2467 37.472 96.3027 37.056 96.4147 36.656C96.5267 36.256 96.6947 35.908 96.9187 35.612C97.1507 35.308 97.4387 35.068 97.7827 34.892C98.1347 34.708 98.5467 34.616 99.0187 34.616C99.4587 34.616 99.8787 34.716 100.279 34.916C100.687 35.108 101.007 35.396 101.239 35.78V32.36Z" fill="#6A6A6A"/>
</svg>
